<svg width="32" height="32" viewBox="0 0 32 32" fill="none" xmlns="http://www.w3.org/2000/svg">
<g clip-path="url(#clip0_796_7)">
<rect width="32" height="32" rx="5" fill="#1E71FF"/>
<path d="M16.0485 6.1455C18.5095 6.1455 20.5565 6.8125 22.1895 8.1465C23.8455 9.4805 24.8805 11.2975 25.2945 13.5975H20.154C19.947 12.5855 19.4755 11.792 18.7395 11.217C18.0035 10.619 17.072 10.32 15.945 10.32C14.657 10.32 13.576 10.803 12.702 11.769C11.851 12.712 11.4255 14.1035 11.4255 15.9435C11.4255 17.7835 11.851 19.1865 12.702 20.1525C13.576 21.0955 14.657 21.567 15.945 21.567C17.072 21.567 18.0035 21.2795 18.7395 20.7045C19.4755 20.1065 19.947 19.3015 20.154 18.2895H25.2945C24.8805 20.5895 23.8455 22.4065 22.1895 23.7405C20.5565 25.0745 18.5095 25.7415 16.0485 25.7415C14.1855 25.7415 12.5295 25.3505 11.0805 24.5685C9.6315 23.7635 8.5045 22.625 7.6995 21.153C6.8945 19.681 6.492 17.9445 6.492 15.9435C6.492 13.9425 6.8945 12.206 7.6995 10.734C8.5045 9.239 9.6315 8.1005 11.0805 7.3185C12.5295 6.5365 14.1855 6.1455 16.0485 6.1455Z" fill="white"/>
</g>
<defs>
<clipPath id="clip0_796_7">
<rect width="32" height="32" fill="white"/>
</clipPath>
</defs>
</svg>
