<svg width="77" height="77" viewBox="0 0 77 77" fill="none" xmlns="http://www.w3.org/2000/svg">
<path d="M14 38.5001V21.9001C14.0259 20.8363 14.2612 19.788 14.6925 18.8152C15.1237 17.8423 15.7424 16.964 16.5132 16.2304C17.2839 15.4967 18.1917 14.9221 19.1847 14.5395C20.1776 14.1568 21.2362 13.9735 22.3 14.0001H54.7C55.7975 13.9726 56.889 14.1686 57.9085 14.576C58.9279 14.9834 59.8538 15.5937 60.6301 16.37C61.4064 17.1463 62.0167 18.0722 62.4241 19.0916C62.8315 20.111 63.0275 21.2026 63 22.3001V55.0001C62.9871 56.0724 62.7614 57.1315 62.336 58.1159C61.9105 59.1002 61.2939 59.9904 60.5218 60.7346C59.7497 61.4788 58.8375 62.0623 57.8381 62.4512C56.8387 62.8401 55.7721 63.0266 54.7 63.0001H22.3C20.1422 63.027 18.0607 62.2023 16.507 60.7047C14.9532 59.2071 14.0525 57.1574 14 55.0001V38.6001V38.5001ZM22.9 38.5001V51.3001C22.9 53.1001 24.2 54.1001 25.7 54.1001H51.4C53 54.1001 54.1 53.1001 54.1 51.4001C54.1023 42.5668 54.1023 33.7334 54.1 24.9001C53.8 23.7001 52.7 22.9001 51.4 22.9001H25.4C24.4 22.9001 23.5 23.5001 23.1 24.5001L22.9 25.8001V38.5001ZM31.9 43.5001C31.9 44.5001 32.4 45.2001 33.4 45.2001H43.5C44.5 45.2001 45.2 44.6001 45.2 43.5001V33.5001C45.2 32.4001 44.6 31.8001 43.5 31.8001H33.5C32.4 31.8001 31.8 32.4001 31.8 33.5001V43.5001H31.9Z" fill="white"/>
</svg>
