<svg width="77" height="77" viewBox="0 0 77 77" fill="none" xmlns="http://www.w3.org/2000/svg">
<path d="M29.4 59.0999C33.3865 59.1265 37.3385 58.3609 41.0267 56.8476C44.7148 55.3343 48.0657 53.1035 50.8846 50.2845C53.7035 47.4656 55.9344 44.1148 57.4477 40.4266C58.961 36.7385 59.7266 32.7864 59.7 28.7999V27.4C61.7 25.9 63.6 23.9999 65 21.9C63 22.7 61 23.3 58.9 23.6C61.1 22.2 62.8 20.1 63.6 17.6C61.5 18.9 59.2 19.8 56.8 20.2C55.1846 18.4858 53.0487 17.3525 50.7235 16.976C48.3984 16.5995 46.014 17.0007 43.9401 18.1174C41.8663 19.2341 40.2188 21.0039 39.2533 23.1523C38.2878 25.3007 38.0581 27.7077 38.6 30C34.3523 29.7818 30.1981 28.6717 26.4076 26.7421C22.6172 24.8124 19.2755 22.1064 16.6 18.7999C15.2331 21.1668 14.8238 23.9671 15.456 26.6261C16.0882 29.2852 17.7141 31.6016 20 33.0999C18.3 33.0999 16.7 32.6 15.2 31.7V31.9C15.2163 34.3435 16.0685 36.7078 17.6149 38.5998C19.1612 40.4918 21.3086 41.7976 23.7 42.2999C22.2 42.6999 20.5 42.7999 18.9 42.5C19.5876 44.6218 20.9211 46.4758 22.7141 47.8026C24.507 49.1293 26.6698 49.8627 28.9 49.9C26.6727 51.6489 24.1204 52.9384 21.391 53.6937C18.6617 54.449 15.8096 54.6551 13 54.2999C17.8906 57.4454 23.5852 59.1122 29.4 59.0999Z" fill="white"/>
</svg>
