<svg width="132" height="20" viewBox="0 0 132 20" fill="none" xmlns="http://www.w3.org/2000/svg">
<path d="M10.9101 0.597228L13.1545 5.14351C13.3105 5.45971 13.6123 5.67881 13.9614 5.72943L18.9801 6.45851C19.8593 6.58632 20.21 7.66604 19.5741 8.28557L15.9426 11.8243C15.6902 12.0704 15.5748 12.4252 15.6346 12.7725L16.4917 17.7694C16.642 18.6446 15.723 19.3118 14.9368 18.899L10.4482 16.5399C10.136 16.376 9.76285 16.376 9.45071 16.5399L4.96203 18.899C4.17587 19.3123 3.25688 18.6446 3.40714 17.7694L4.26428 12.7725C4.32406 12.4252 4.20866 12.0704 3.95629 11.8243L0.324755 8.28557C-0.311148 7.66563 0.0395948 6.5859 0.918735 6.45851L5.93747 5.72943C6.28656 5.67881 6.58832 5.45971 6.74439 5.14351L8.98873 0.597228C9.3814 -0.199076 10.5171 -0.199076 10.9101 0.597228Z" fill="#FBA229"/>
<path d="M38.8089 0.597228L41.0533 5.14351C41.2093 5.45971 41.5111 5.67881 41.8602 5.72943L46.8789 6.45851C47.7581 6.58632 48.1088 7.66604 47.4729 8.28557L43.8414 11.8243C43.589 12.0704 43.4736 12.4252 43.5334 12.7725L44.3905 17.7694C44.5408 18.6446 43.6218 19.3118 42.8356 18.899L38.347 16.5399C38.0348 16.376 37.6617 16.376 37.3495 16.5399L32.8608 18.899C32.0747 19.3123 31.1557 18.6446 31.3059 17.7694L32.1631 12.7725C32.2229 12.4252 32.1075 12.0704 31.8551 11.8243L28.2236 8.28557C27.5877 7.66563 27.9384 6.5859 28.8175 6.45851L33.8363 5.72943C34.1854 5.67881 34.4871 5.45971 34.6432 5.14351L36.8875 0.597228C37.2802 -0.199076 38.4159 -0.199076 38.8089 0.597228Z" fill="#FBA229"/>
<path d="M66.7078 0.597228L68.9521 5.14351C69.1082 5.45971 69.41 5.67881 69.7591 5.72943L74.7778 6.45851C75.6569 6.58632 76.0077 7.66604 75.3718 8.28557L71.7402 11.8243C71.4879 12.0704 71.3725 12.4252 71.4322 12.7725L72.2894 17.7694C72.4396 18.6446 71.5207 19.3118 70.7345 18.899L66.2458 16.5399C65.9337 16.376 65.5605 16.376 65.2484 16.5399L60.7597 18.899C59.9735 19.3123 59.0546 18.6446 59.2048 17.7694L60.062 12.7725C60.1217 12.4252 60.0063 12.0704 59.754 11.8243L56.1224 8.28557C55.4865 7.66563 55.8373 6.5859 56.7164 6.45851L61.7351 5.72943C62.0842 5.67881 62.386 5.45971 62.5421 5.14351L64.7864 0.597228C65.1791 -0.199076 66.3147 -0.199076 66.7078 0.597228Z" fill="#FBA229"/>
<path d="M94.6067 0.597228L96.851 5.14351C97.0071 5.45971 97.3088 5.67881 97.6579 5.72943L102.677 6.45851C103.556 6.58632 103.907 7.66604 103.271 8.28557L99.6391 11.8243C99.3867 12.0704 99.2713 12.4252 99.3311 12.7725L100.188 17.7694C100.339 18.6446 99.4195 19.3118 98.6334 18.899L94.1447 16.5399C93.8325 16.376 93.4594 16.376 93.1472 16.5399L88.6586 18.899C87.8724 19.3123 86.9534 18.6446 87.1037 17.7694L87.9608 12.7725C88.0206 12.4252 87.9052 12.0704 87.6528 11.8243L84.0213 8.28557C83.3854 7.66563 83.7361 6.5859 84.6153 6.45851L89.634 5.72943C89.9831 5.67881 90.2849 5.45971 90.4409 5.14351L92.6853 0.597228C93.0779 -0.199076 94.2136 -0.199076 94.6067 0.597228Z" fill="#FBA229"/>
<path d="M122.505 0.597228L124.75 5.14351C124.906 5.45971 125.208 5.67881 125.557 5.72943L130.575 6.45851C131.455 6.58632 131.805 7.66604 131.169 8.28557L127.538 11.8243C127.286 12.0704 127.17 12.4252 127.23 12.7725L128.087 17.7694C128.237 18.6446 127.318 19.3118 126.532 18.899L122.043 16.5399C121.731 16.376 121.358 16.376 121.046 16.5399L116.557 18.899C115.771 19.3123 114.852 18.6446 115.002 17.7694L115.86 12.7725C115.919 12.4252 115.804 12.0704 115.552 11.8243L111.92 8.28557C111.284 7.66563 111.635 6.5859 112.514 6.45851L117.533 5.72943C117.882 5.67881 118.184 5.45971 118.34 5.14351L120.584 0.597228C120.977 -0.199076 122.112 -0.199076 122.505 0.597228Z" fill="#FBA229"/>
</svg>
